%TF.GenerationSoftware,KiCad,Pcbnew,9.0.0*%
%TF.CreationDate,2025-04-20T12:54:08+05:30*%
%TF.ProjectId,IOT based traffic light smart control innovation,494f5420-6261-4736-9564-207472616666,rev?*%
%TF.SameCoordinates,Original*%
%TF.FileFunction,Legend,Top*%
%TF.FilePolarity,Positive*%
%FSLAX46Y46*%
G04 Gerber Fmt 4.6, Leading zero omitted, Abs format (unit mm)*
G04 Created by KiCad (PCBNEW 9.0.0) date 2025-04-20 12:54:08*
%MOMM*%
%LPD*%
G01*
G04 APERTURE LIST*
%ADD10C,0.150000*%
%ADD11C,0.120000*%
%ADD12C,0.100000*%
G04 APERTURE END LIST*
D10*
X59588095Y-154224819D02*
X59588095Y-155034342D01*
X59588095Y-155034342D02*
X59635714Y-155129580D01*
X59635714Y-155129580D02*
X59683333Y-155177200D01*
X59683333Y-155177200D02*
X59778571Y-155224819D01*
X59778571Y-155224819D02*
X59969047Y-155224819D01*
X59969047Y-155224819D02*
X60064285Y-155177200D01*
X60064285Y-155177200D02*
X60111904Y-155129580D01*
X60111904Y-155129580D02*
X60159523Y-155034342D01*
X60159523Y-155034342D02*
X60159523Y-154224819D01*
X61064285Y-154558152D02*
X61064285Y-155224819D01*
X60826190Y-154177200D02*
X60588095Y-154891485D01*
X60588095Y-154891485D02*
X61207142Y-154891485D01*
X59388095Y-108224819D02*
X59388095Y-109034342D01*
X59388095Y-109034342D02*
X59435714Y-109129580D01*
X59435714Y-109129580D02*
X59483333Y-109177200D01*
X59483333Y-109177200D02*
X59578571Y-109224819D01*
X59578571Y-109224819D02*
X59769047Y-109224819D01*
X59769047Y-109224819D02*
X59864285Y-109177200D01*
X59864285Y-109177200D02*
X59911904Y-109129580D01*
X59911904Y-109129580D02*
X59959523Y-109034342D01*
X59959523Y-109034342D02*
X59959523Y-108224819D01*
X60340476Y-108224819D02*
X60959523Y-108224819D01*
X60959523Y-108224819D02*
X60626190Y-108605771D01*
X60626190Y-108605771D02*
X60769047Y-108605771D01*
X60769047Y-108605771D02*
X60864285Y-108653390D01*
X60864285Y-108653390D02*
X60911904Y-108701009D01*
X60911904Y-108701009D02*
X60959523Y-108796247D01*
X60959523Y-108796247D02*
X60959523Y-109034342D01*
X60959523Y-109034342D02*
X60911904Y-109129580D01*
X60911904Y-109129580D02*
X60864285Y-109177200D01*
X60864285Y-109177200D02*
X60769047Y-109224819D01*
X60769047Y-109224819D02*
X60483333Y-109224819D01*
X60483333Y-109224819D02*
X60388095Y-109177200D01*
X60388095Y-109177200D02*
X60340476Y-109129580D01*
X143698095Y-143389819D02*
X143698095Y-144199342D01*
X143698095Y-144199342D02*
X143745714Y-144294580D01*
X143745714Y-144294580D02*
X143793333Y-144342200D01*
X143793333Y-144342200D02*
X143888571Y-144389819D01*
X143888571Y-144389819D02*
X144079047Y-144389819D01*
X144079047Y-144389819D02*
X144174285Y-144342200D01*
X144174285Y-144342200D02*
X144221904Y-144294580D01*
X144221904Y-144294580D02*
X144269523Y-144199342D01*
X144269523Y-144199342D02*
X144269523Y-143389819D01*
X144698095Y-143485057D02*
X144745714Y-143437438D01*
X144745714Y-143437438D02*
X144840952Y-143389819D01*
X144840952Y-143389819D02*
X145079047Y-143389819D01*
X145079047Y-143389819D02*
X145174285Y-143437438D01*
X145174285Y-143437438D02*
X145221904Y-143485057D01*
X145221904Y-143485057D02*
X145269523Y-143580295D01*
X145269523Y-143580295D02*
X145269523Y-143675533D01*
X145269523Y-143675533D02*
X145221904Y-143818390D01*
X145221904Y-143818390D02*
X144650476Y-144389819D01*
X144650476Y-144389819D02*
X145269523Y-144389819D01*
X76738095Y-139554819D02*
X76738095Y-140364342D01*
X76738095Y-140364342D02*
X76785714Y-140459580D01*
X76785714Y-140459580D02*
X76833333Y-140507200D01*
X76833333Y-140507200D02*
X76928571Y-140554819D01*
X76928571Y-140554819D02*
X77119047Y-140554819D01*
X77119047Y-140554819D02*
X77214285Y-140507200D01*
X77214285Y-140507200D02*
X77261904Y-140459580D01*
X77261904Y-140459580D02*
X77309523Y-140364342D01*
X77309523Y-140364342D02*
X77309523Y-139554819D01*
X78309523Y-140554819D02*
X77738095Y-140554819D01*
X78023809Y-140554819D02*
X78023809Y-139554819D01*
X78023809Y-139554819D02*
X77928571Y-139697676D01*
X77928571Y-139697676D02*
X77833333Y-139792914D01*
X77833333Y-139792914D02*
X77738095Y-139840533D01*
X128968333Y-146709819D02*
X128635000Y-146233628D01*
X128396905Y-146709819D02*
X128396905Y-145709819D01*
X128396905Y-145709819D02*
X128777857Y-145709819D01*
X128777857Y-145709819D02*
X128873095Y-145757438D01*
X128873095Y-145757438D02*
X128920714Y-145805057D01*
X128920714Y-145805057D02*
X128968333Y-145900295D01*
X128968333Y-145900295D02*
X128968333Y-146043152D01*
X128968333Y-146043152D02*
X128920714Y-146138390D01*
X128920714Y-146138390D02*
X128873095Y-146186009D01*
X128873095Y-146186009D02*
X128777857Y-146233628D01*
X128777857Y-146233628D02*
X128396905Y-146233628D01*
X129301667Y-145709819D02*
X129920714Y-145709819D01*
X129920714Y-145709819D02*
X129587381Y-146090771D01*
X129587381Y-146090771D02*
X129730238Y-146090771D01*
X129730238Y-146090771D02*
X129825476Y-146138390D01*
X129825476Y-146138390D02*
X129873095Y-146186009D01*
X129873095Y-146186009D02*
X129920714Y-146281247D01*
X129920714Y-146281247D02*
X129920714Y-146519342D01*
X129920714Y-146519342D02*
X129873095Y-146614580D01*
X129873095Y-146614580D02*
X129825476Y-146662200D01*
X129825476Y-146662200D02*
X129730238Y-146709819D01*
X129730238Y-146709819D02*
X129444524Y-146709819D01*
X129444524Y-146709819D02*
X129349286Y-146662200D01*
X129349286Y-146662200D02*
X129301667Y-146614580D01*
X154988333Y-113904819D02*
X154655000Y-113428628D01*
X154416905Y-113904819D02*
X154416905Y-112904819D01*
X154416905Y-112904819D02*
X154797857Y-112904819D01*
X154797857Y-112904819D02*
X154893095Y-112952438D01*
X154893095Y-112952438D02*
X154940714Y-113000057D01*
X154940714Y-113000057D02*
X154988333Y-113095295D01*
X154988333Y-113095295D02*
X154988333Y-113238152D01*
X154988333Y-113238152D02*
X154940714Y-113333390D01*
X154940714Y-113333390D02*
X154893095Y-113381009D01*
X154893095Y-113381009D02*
X154797857Y-113428628D01*
X154797857Y-113428628D02*
X154416905Y-113428628D01*
X155369286Y-113000057D02*
X155416905Y-112952438D01*
X155416905Y-112952438D02*
X155512143Y-112904819D01*
X155512143Y-112904819D02*
X155750238Y-112904819D01*
X155750238Y-112904819D02*
X155845476Y-112952438D01*
X155845476Y-112952438D02*
X155893095Y-113000057D01*
X155893095Y-113000057D02*
X155940714Y-113095295D01*
X155940714Y-113095295D02*
X155940714Y-113190533D01*
X155940714Y-113190533D02*
X155893095Y-113333390D01*
X155893095Y-113333390D02*
X155321667Y-113904819D01*
X155321667Y-113904819D02*
X155940714Y-113904819D01*
X117761905Y-150304819D02*
X117761905Y-149304819D01*
X117761905Y-149304819D02*
X118000000Y-149304819D01*
X118000000Y-149304819D02*
X118142857Y-149352438D01*
X118142857Y-149352438D02*
X118238095Y-149447676D01*
X118238095Y-149447676D02*
X118285714Y-149542914D01*
X118285714Y-149542914D02*
X118333333Y-149733390D01*
X118333333Y-149733390D02*
X118333333Y-149876247D01*
X118333333Y-149876247D02*
X118285714Y-150066723D01*
X118285714Y-150066723D02*
X118238095Y-150161961D01*
X118238095Y-150161961D02*
X118142857Y-150257200D01*
X118142857Y-150257200D02*
X118000000Y-150304819D01*
X118000000Y-150304819D02*
X117761905Y-150304819D01*
X119190476Y-149304819D02*
X119000000Y-149304819D01*
X119000000Y-149304819D02*
X118904762Y-149352438D01*
X118904762Y-149352438D02*
X118857143Y-149400057D01*
X118857143Y-149400057D02*
X118761905Y-149542914D01*
X118761905Y-149542914D02*
X118714286Y-149733390D01*
X118714286Y-149733390D02*
X118714286Y-150114342D01*
X118714286Y-150114342D02*
X118761905Y-150209580D01*
X118761905Y-150209580D02*
X118809524Y-150257200D01*
X118809524Y-150257200D02*
X118904762Y-150304819D01*
X118904762Y-150304819D02*
X119095238Y-150304819D01*
X119095238Y-150304819D02*
X119190476Y-150257200D01*
X119190476Y-150257200D02*
X119238095Y-150209580D01*
X119238095Y-150209580D02*
X119285714Y-150114342D01*
X119285714Y-150114342D02*
X119285714Y-149876247D01*
X119285714Y-149876247D02*
X119238095Y-149781009D01*
X119238095Y-149781009D02*
X119190476Y-149733390D01*
X119190476Y-149733390D02*
X119095238Y-149685771D01*
X119095238Y-149685771D02*
X118904762Y-149685771D01*
X118904762Y-149685771D02*
X118809524Y-149733390D01*
X118809524Y-149733390D02*
X118761905Y-149781009D01*
X118761905Y-149781009D02*
X118714286Y-149876247D01*
X110791905Y-144019819D02*
X110791905Y-143019819D01*
X110791905Y-143019819D02*
X111030000Y-143019819D01*
X111030000Y-143019819D02*
X111172857Y-143067438D01*
X111172857Y-143067438D02*
X111268095Y-143162676D01*
X111268095Y-143162676D02*
X111315714Y-143257914D01*
X111315714Y-143257914D02*
X111363333Y-143448390D01*
X111363333Y-143448390D02*
X111363333Y-143591247D01*
X111363333Y-143591247D02*
X111315714Y-143781723D01*
X111315714Y-143781723D02*
X111268095Y-143876961D01*
X111268095Y-143876961D02*
X111172857Y-143972200D01*
X111172857Y-143972200D02*
X111030000Y-144019819D01*
X111030000Y-144019819D02*
X110791905Y-144019819D01*
X112268095Y-143019819D02*
X111791905Y-143019819D01*
X111791905Y-143019819D02*
X111744286Y-143496009D01*
X111744286Y-143496009D02*
X111791905Y-143448390D01*
X111791905Y-143448390D02*
X111887143Y-143400771D01*
X111887143Y-143400771D02*
X112125238Y-143400771D01*
X112125238Y-143400771D02*
X112220476Y-143448390D01*
X112220476Y-143448390D02*
X112268095Y-143496009D01*
X112268095Y-143496009D02*
X112315714Y-143591247D01*
X112315714Y-143591247D02*
X112315714Y-143829342D01*
X112315714Y-143829342D02*
X112268095Y-143924580D01*
X112268095Y-143924580D02*
X112220476Y-143972200D01*
X112220476Y-143972200D02*
X112125238Y-144019819D01*
X112125238Y-144019819D02*
X111887143Y-144019819D01*
X111887143Y-144019819D02*
X111791905Y-143972200D01*
X111791905Y-143972200D02*
X111744286Y-143924580D01*
X165761905Y-127304819D02*
X165761905Y-126304819D01*
X165761905Y-126304819D02*
X166000000Y-126304819D01*
X166000000Y-126304819D02*
X166142857Y-126352438D01*
X166142857Y-126352438D02*
X166238095Y-126447676D01*
X166238095Y-126447676D02*
X166285714Y-126542914D01*
X166285714Y-126542914D02*
X166333333Y-126733390D01*
X166333333Y-126733390D02*
X166333333Y-126876247D01*
X166333333Y-126876247D02*
X166285714Y-127066723D01*
X166285714Y-127066723D02*
X166238095Y-127161961D01*
X166238095Y-127161961D02*
X166142857Y-127257200D01*
X166142857Y-127257200D02*
X166000000Y-127304819D01*
X166000000Y-127304819D02*
X165761905Y-127304819D01*
X167190476Y-126638152D02*
X167190476Y-127304819D01*
X166952381Y-126257200D02*
X166714286Y-126971485D01*
X166714286Y-126971485D02*
X167333333Y-126971485D01*
X98579047Y-158116009D02*
X98721904Y-158163628D01*
X98721904Y-158163628D02*
X98769523Y-158211247D01*
X98769523Y-158211247D02*
X98817142Y-158306485D01*
X98817142Y-158306485D02*
X98817142Y-158449342D01*
X98817142Y-158449342D02*
X98769523Y-158544580D01*
X98769523Y-158544580D02*
X98721904Y-158592200D01*
X98721904Y-158592200D02*
X98626666Y-158639819D01*
X98626666Y-158639819D02*
X98245714Y-158639819D01*
X98245714Y-158639819D02*
X98245714Y-157639819D01*
X98245714Y-157639819D02*
X98579047Y-157639819D01*
X98579047Y-157639819D02*
X98674285Y-157687438D01*
X98674285Y-157687438D02*
X98721904Y-157735057D01*
X98721904Y-157735057D02*
X98769523Y-157830295D01*
X98769523Y-157830295D02*
X98769523Y-157925533D01*
X98769523Y-157925533D02*
X98721904Y-158020771D01*
X98721904Y-158020771D02*
X98674285Y-158068390D01*
X98674285Y-158068390D02*
X98579047Y-158116009D01*
X98579047Y-158116009D02*
X98245714Y-158116009D01*
X99150476Y-157639819D02*
X99817142Y-157639819D01*
X99817142Y-157639819D02*
X99150476Y-158639819D01*
X99150476Y-158639819D02*
X99817142Y-158639819D01*
X100721904Y-158639819D02*
X100150476Y-158639819D01*
X100436190Y-158639819D02*
X100436190Y-157639819D01*
X100436190Y-157639819D02*
X100340952Y-157782676D01*
X100340952Y-157782676D02*
X100245714Y-157877914D01*
X100245714Y-157877914D02*
X100150476Y-157925533D01*
X99119048Y-138473866D02*
X99880953Y-138473866D01*
X99500000Y-138854819D02*
X99500000Y-138092914D01*
X105535714Y-62099104D02*
X106011904Y-62099104D01*
X105440476Y-62384819D02*
X105773809Y-61384819D01*
X105773809Y-61384819D02*
X106107142Y-62384819D01*
X106392857Y-61480057D02*
X106440476Y-61432438D01*
X106440476Y-61432438D02*
X106535714Y-61384819D01*
X106535714Y-61384819D02*
X106773809Y-61384819D01*
X106773809Y-61384819D02*
X106869047Y-61432438D01*
X106869047Y-61432438D02*
X106916666Y-61480057D01*
X106916666Y-61480057D02*
X106964285Y-61575295D01*
X106964285Y-61575295D02*
X106964285Y-61670533D01*
X106964285Y-61670533D02*
X106916666Y-61813390D01*
X106916666Y-61813390D02*
X106345238Y-62384819D01*
X106345238Y-62384819D02*
X106964285Y-62384819D01*
D11*
%TO.C,U4*%
X58250000Y-155670000D02*
X62450000Y-155670000D01*
X58250000Y-160870000D02*
X58250000Y-155670000D01*
X62450000Y-155670000D02*
X62450000Y-160870000D01*
X62450000Y-160870000D02*
X58250000Y-160870000D01*
X57350000Y-156270000D02*
X57050000Y-155770000D01*
X57650000Y-155770000D01*
X57350000Y-156270000D01*
G36*
X57350000Y-156270000D02*
G01*
X57050000Y-155770000D01*
X57650000Y-155770000D01*
X57350000Y-156270000D01*
G37*
%TO.C,U3*%
X58050000Y-109670000D02*
X62250000Y-109670000D01*
X58050000Y-114870000D02*
X58050000Y-109670000D01*
X62250000Y-109670000D02*
X62250000Y-114870000D01*
X62250000Y-114870000D02*
X58050000Y-114870000D01*
X57150000Y-110270000D02*
X56850000Y-109770000D01*
X57450000Y-109770000D01*
X57150000Y-110270000D01*
G36*
X57150000Y-110270000D02*
G01*
X56850000Y-109770000D01*
X57450000Y-109770000D01*
X57150000Y-110270000D01*
G37*
%TO.C,U2*%
X142000000Y-148485000D02*
X141780000Y-148485000D01*
X147580000Y-144825000D02*
X144500000Y-144825000D01*
X147660000Y-148485000D02*
X147200000Y-148485000D01*
X147660000Y-148485000D02*
X147660000Y-147285000D01*
X147200000Y-148485000D02*
G75*
G02*
X142000000Y-148485000I-2600000J1100000D01*
G01*
%TO.C,U1*%
X77500000Y-140940000D02*
X75550000Y-140940000D01*
X77500000Y-140940000D02*
X79450000Y-140940000D01*
X77500000Y-146060000D02*
X75550000Y-146060000D01*
X77500000Y-146060000D02*
X79450000Y-146060000D01*
X74800000Y-141035000D02*
X74560000Y-140705000D01*
X75040000Y-140705000D01*
X74800000Y-141035000D01*
G36*
X74800000Y-141035000D02*
G01*
X74560000Y-140705000D01*
X75040000Y-140705000D01*
X74800000Y-141035000D01*
G37*
%TO.C,R3*%
X132437742Y-132977500D02*
X132912258Y-132977500D01*
X132437742Y-134022500D02*
X132912258Y-134022500D01*
D12*
%TO.C,D6*%
X116000000Y-154100000D02*
X116000000Y-151200000D01*
X116000000Y-154100000D02*
X121000000Y-154100000D01*
X116300000Y-150900000D02*
X116000000Y-151200000D01*
X116300000Y-150900000D02*
X121000000Y-150900000D01*
X121000000Y-154100000D02*
X121000000Y-150900000D01*
%TO.C,D5*%
X130000000Y-150600000D02*
X130000000Y-147700000D01*
X130000000Y-150600000D02*
X135000000Y-150600000D01*
X130300000Y-147400000D02*
X130000000Y-147700000D01*
X130300000Y-147400000D02*
X135000000Y-147400000D01*
X135000000Y-150600000D02*
X135000000Y-147400000D01*
%TO.C,D4*%
X164000000Y-131100000D02*
X164000000Y-128200000D01*
X164000000Y-131100000D02*
X169000000Y-131100000D01*
X164300000Y-127900000D02*
X164000000Y-128200000D01*
X164300000Y-127900000D02*
X169000000Y-127900000D01*
X169000000Y-131100000D02*
X169000000Y-127900000D01*
D11*
%TO.C,BZ1*%
X107620000Y-138500000D02*
G75*
G02*
X98380000Y-138500000I-4620000J0D01*
G01*
X98380000Y-138500000D02*
G75*
G02*
X107620000Y-138500000I4620000J0D01*
G01*
%TO.C,A2*%
X70560000Y-95460000D02*
X70560000Y-107140000D01*
X70560000Y-107140000D02*
X76910000Y-107140000D01*
X75010000Y-66250000D02*
X75010000Y-75390000D01*
X75010000Y-75390000D02*
X76910000Y-75390000D01*
X76910000Y-63070000D02*
X76910000Y-66250000D01*
X76910000Y-66250000D02*
X75010000Y-66250000D01*
X76910000Y-75390000D02*
X76910000Y-95460000D01*
X76910000Y-95460000D02*
X70560000Y-95460000D01*
X76910000Y-107140000D02*
X76910000Y-116670000D01*
X76910000Y-116670000D02*
X141560000Y-116670000D01*
X141560000Y-116670000D02*
X143210000Y-115020000D01*
X143210000Y-63070000D02*
X76910000Y-63070000D01*
X143210000Y-65740000D02*
X143210000Y-63070000D01*
X143210000Y-103590000D02*
X145750000Y-101050000D01*
X143210000Y-115020000D02*
X143210000Y-103590000D01*
X145750000Y-68280000D02*
X143210000Y-65740000D01*
X145750000Y-101050000D02*
X145750000Y-68280000D01*
%TD*%
M02*
