%TF.GenerationSoftware,KiCad,Pcbnew,9.0.0*%
%TF.CreationDate,2025-04-20T12:54:08+05:30*%
%TF.ProjectId,IOT based traffic light smart control innovation,494f5420-6261-4736-9564-207472616666,rev?*%
%TF.SameCoordinates,Original*%
%TF.FileFunction,Copper,L1,Top*%
%TF.FilePolarity,Positive*%
%FSLAX46Y46*%
G04 Gerber Fmt 4.6, Leading zero omitted, Abs format (unit mm)*
G04 Created by KiCad (PCBNEW 9.0.0) date 2025-04-20 12:54:08*
%MOMM*%
%LPD*%
G01*
G04 APERTURE LIST*
G04 Aperture macros list*
%AMRoundRect*
0 Rectangle with rounded corners*
0 $1 Rounding radius*
0 $2 $3 $4 $5 $6 $7 $8 $9 X,Y pos of 4 corners*
0 Add a 4 corners polygon primitive as box body*
4,1,4,$2,$3,$4,$5,$6,$7,$8,$9,$2,$3,0*
0 Add four circle primitives for the rounded corners*
1,1,$1+$1,$2,$3*
1,1,$1+$1,$4,$5*
1,1,$1+$1,$6,$7*
1,1,$1+$1,$8,$9*
0 Add four rect primitives between the rounded corners*
20,1,$1+$1,$2,$3,$4,$5,0*
20,1,$1+$1,$4,$5,$6,$7,0*
20,1,$1+$1,$6,$7,$8,$9,0*
20,1,$1+$1,$8,$9,$2,$3,0*%
G04 Aperture macros list end*
%TA.AperFunction,SMDPad,CuDef*%
%ADD10RoundRect,0.275000X-0.475000X-0.275000X0.475000X-0.275000X0.475000X0.275000X-0.475000X0.275000X0*%
%TD*%
%TA.AperFunction,ComponentPad*%
%ADD11RoundRect,0.248400X-0.651600X-0.651600X0.651600X-0.651600X0.651600X0.651600X-0.651600X0.651600X0*%
%TD*%
%TA.AperFunction,ComponentPad*%
%ADD12C,1.800000*%
%TD*%
%TA.AperFunction,SMDPad,CuDef*%
%ADD13RoundRect,0.150000X-0.825000X-0.150000X0.825000X-0.150000X0.825000X0.150000X-0.825000X0.150000X0*%
%TD*%
%TA.AperFunction,SMDPad,CuDef*%
%ADD14RoundRect,0.200000X-0.200000X-0.275000X0.200000X-0.275000X0.200000X0.275000X-0.200000X0.275000X0*%
%TD*%
%TA.AperFunction,SMDPad,CuDef*%
%ADD15RoundRect,0.100000X-0.130000X-0.100000X0.130000X-0.100000X0.130000X0.100000X-0.130000X0.100000X0*%
%TD*%
%TA.AperFunction,SMDPad,CuDef*%
%ADD16R,1.500000X1.100000*%
%TD*%
%TA.AperFunction,ComponentPad*%
%ADD17R,1.600000X1.600000*%
%TD*%
%TA.AperFunction,ComponentPad*%
%ADD18C,1.600000*%
%TD*%
%TA.AperFunction,ComponentPad*%
%ADD19O,1.600000X1.600000*%
%TD*%
%TA.AperFunction,Conductor*%
%ADD20C,0.200000*%
%TD*%
G04 APERTURE END LIST*
D10*
%TO.P,U4,1,GND*%
%TO.N,unconnected-(U4-GND-Pad1)*%
X57200000Y-157000000D03*
%TO.P,U4,2,GND*%
%TO.N,unconnected-(U4-GND-Pad1)_1*%
X57200000Y-159540000D03*
%TO.P,U4,3,OUT*%
%TO.N,Net-(A2-D5)*%
X63500000Y-159540000D03*
%TO.P,U4,4,Vcc*%
%TO.N,Net-(A2-D4)*%
X63500000Y-157000000D03*
%TD*%
%TO.P,U3,1,GND*%
%TO.N,unconnected-(U3-GND-Pad1)*%
X57000000Y-111000000D03*
%TO.P,U3,2,GND*%
%TO.N,unconnected-(U3-GND-Pad1)_1*%
X57000000Y-113540000D03*
%TO.P,U3,3,OUT*%
%TO.N,unconnected-(U3-OUT-Pad3)*%
X63300000Y-113540000D03*
%TO.P,U3,4,Vcc*%
%TO.N,Net-(A2-D4)*%
X63300000Y-111000000D03*
%TD*%
D11*
%TO.P,U2,1,OUT*%
%TO.N,unconnected-(U2-OUT-Pad1)*%
X141960000Y-146185000D03*
D12*
%TO.P,U2,2,GND*%
%TO.N,unconnected-(U2-GND-Pad2)*%
X144500000Y-146185000D03*
%TO.P,U2,3,Vs*%
%TO.N,Net-(A2-D4)*%
X147040000Y-146185000D03*
%TD*%
D13*
%TO.P,U1,1,~{CE}*%
%TO.N,Net-(BZ1-+)*%
X75025000Y-141595000D03*
%TO.P,U1,2,SO/SIO*%
%TO.N,unconnected-(U1-SO{slash}SIO-Pad2)*%
X75025000Y-142865000D03*
%TO.P,U1,3,SIO2*%
%TO.N,unconnected-(U1-SIO2-Pad3)*%
X75025000Y-144135000D03*
%TO.P,U1,4,VSS*%
%TO.N,Net-(A2-D13)*%
X75025000Y-145405000D03*
%TO.P,U1,5,SI/SIO*%
%TO.N,Net-(A2-D5)*%
X79975000Y-145405000D03*
%TO.P,U1,6,SCLK*%
%TO.N,Net-(BZ1-+)*%
X79975000Y-144135000D03*
%TO.P,U1,7,SIO3*%
%TO.N,unconnected-(U1-SIO3-Pad7)*%
X79975000Y-142865000D03*
%TO.P,U1,8,VCC*%
%TO.N,Net-(A2-D13)*%
X79975000Y-141595000D03*
%TD*%
D14*
%TO.P,R3,1*%
%TO.N,Net-(D5-GK)*%
X131850000Y-133500000D03*
%TO.P,R3,2*%
%TO.N,Earth*%
X133500000Y-133500000D03*
%TD*%
D15*
%TO.P,R2,1*%
%TO.N,Net-(R2-Pad1)*%
X154835000Y-114500000D03*
%TO.P,R2,2*%
%TO.N,Net-(A2-+5V)*%
X155475000Y-114500000D03*
%TD*%
D16*
%TO.P,D6,1,RK*%
%TO.N,Net-(D5-GK)*%
X117000000Y-151750000D03*
%TO.P,D6,2,GK*%
X120000000Y-151750000D03*
%TO.P,D6,3,BK*%
X120000000Y-153250000D03*
%TO.P,D6,4,A*%
%TO.N,unconnected-(D6-A-Pad4)*%
X117000000Y-153250000D03*
%TD*%
%TO.P,D5,1,RK*%
%TO.N,Net-(D5-GK)*%
X131000000Y-148250000D03*
%TO.P,D5,2,GK*%
X134000000Y-148250000D03*
%TO.P,D5,3,BK*%
%TO.N,Net-(A2-D9)*%
X134000000Y-149750000D03*
%TO.P,D5,4,A*%
%TO.N,unconnected-(D5-A-Pad4)*%
X131000000Y-149750000D03*
%TD*%
%TO.P,D4,1,RK*%
%TO.N,Net-(A2-D1{slash}TX)*%
X165000000Y-128750000D03*
%TO.P,D4,2,GK*%
X168000000Y-128750000D03*
%TO.P,D4,3,BK*%
%TO.N,Net-(A2-VIN)*%
X168000000Y-130250000D03*
%TO.P,D4,4,A*%
%TO.N,unconnected-(D4-A-Pad4)*%
X165000000Y-130250000D03*
%TD*%
D17*
%TO.P,BZ1,1,+*%
%TO.N,Net-(BZ1-+)*%
X101000000Y-138500000D03*
D18*
%TO.P,BZ1,2,-*%
%TO.N,Earth*%
X105000000Y-138500000D03*
%TD*%
D17*
%TO.P,A2,1,NC*%
%TO.N,unconnected-(A2-NC-Pad1)*%
X104980000Y-65740000D03*
D19*
%TO.P,A2,2,IOREF*%
%TO.N,unconnected-(A2-IOREF-Pad2)*%
X107520000Y-65740000D03*
%TO.P,A2,3,~{RESET}*%
%TO.N,unconnected-(A2-~{RESET}-Pad3)*%
X110060000Y-65740000D03*
%TO.P,A2,4,3V3*%
%TO.N,unconnected-(A2-3V3-Pad4)*%
X112600000Y-65740000D03*
%TO.P,A2,5,+5V*%
%TO.N,Net-(A2-+5V)*%
X115140000Y-65740000D03*
%TO.P,A2,6,GND*%
%TO.N,unconnected-(A2-GND-Pad6)*%
X117680000Y-65740000D03*
%TO.P,A2,7,GND*%
%TO.N,GND*%
X120220000Y-65740000D03*
%TO.P,A2,8,VIN*%
%TO.N,Net-(A2-VIN)*%
X122760000Y-65740000D03*
%TO.P,A2,9,A0*%
%TO.N,unconnected-(A2-A0-Pad9)*%
X127840000Y-65740000D03*
%TO.P,A2,10,A1*%
%TO.N,unconnected-(A2-A1-Pad10)*%
X130380000Y-65740000D03*
%TO.P,A2,11,A2*%
%TO.N,unconnected-(A2-A2-Pad11)*%
X132920000Y-65740000D03*
%TO.P,A2,12,A3*%
%TO.N,unconnected-(A2-A3-Pad12)*%
X135460000Y-65740000D03*
%TO.P,A2,13,SDA/A4*%
%TO.N,unconnected-(A2-SDA{slash}A4-Pad13)*%
X138000000Y-65740000D03*
%TO.P,A2,14,SCL/A5*%
%TO.N,unconnected-(A2-SCL{slash}A5-Pad14)*%
X140540000Y-65740000D03*
%TO.P,A2,15,D0/RX*%
%TO.N,unconnected-(A2-D0{slash}RX-Pad15)*%
X140540000Y-114000000D03*
%TO.P,A2,16,D1/TX*%
%TO.N,Net-(A2-D1{slash}TX)*%
X138000000Y-114000000D03*
%TO.P,A2,17,D2*%
%TO.N,unconnected-(A2-D2-Pad17)*%
X135460000Y-114000000D03*
%TO.P,A2,18,D3*%
%TO.N,unconnected-(A2-D3-Pad18)*%
X132920000Y-114000000D03*
%TO.P,A2,19,D4*%
%TO.N,Net-(A2-D4)*%
X130380000Y-114000000D03*
%TO.P,A2,20,D5*%
%TO.N,Net-(A2-D5)*%
X127840000Y-114000000D03*
%TO.P,A2,21,D6*%
%TO.N,unconnected-(A2-D6-Pad21)*%
X125300000Y-114000000D03*
%TO.P,A2,22,D7*%
%TO.N,unconnected-(A2-D7-Pad22)*%
X122760000Y-114000000D03*
%TO.P,A2,23,D8*%
%TO.N,unconnected-(A2-D8-Pad23)*%
X118700000Y-114000000D03*
%TO.P,A2,24,D9*%
%TO.N,Net-(A2-D9)*%
X116160000Y-114000000D03*
%TO.P,A2,25,D10*%
%TO.N,unconnected-(A2-D10-Pad25)*%
X113620000Y-114000000D03*
%TO.P,A2,26,D11*%
%TO.N,unconnected-(A2-D11-Pad26)*%
X111080000Y-114000000D03*
%TO.P,A2,27,D12*%
%TO.N,unconnected-(A2-D12-Pad27)*%
X108540000Y-114000000D03*
%TO.P,A2,28,D13*%
%TO.N,Net-(A2-D13)*%
X106000000Y-114000000D03*
%TO.P,A2,29,GND*%
%TO.N,unconnected-(A2-GND-Pad29)*%
X103460000Y-114000000D03*
%TO.P,A2,30,AREF*%
%TO.N,unconnected-(A2-AREF-Pad30)*%
X100920000Y-114000000D03*
%TD*%
D20*
%TO.N,Net-(A2-D5)*%
X126759000Y-112919000D02*
X127840000Y-114000000D01*
X115079000Y-113552235D02*
X115712235Y-112919000D01*
X115079000Y-114447765D02*
X115079000Y-113552235D01*
X115712235Y-112919000D02*
X126759000Y-112919000D01*
X84121765Y-145405000D02*
X115079000Y-114447765D01*
X79975000Y-145405000D02*
X84121765Y-145405000D01*
X65840000Y-159540000D02*
X79975000Y-145405000D01*
X63500000Y-159540000D02*
X65840000Y-159540000D01*
X79975000Y-145405000D02*
X79595000Y-145405000D01*
%TO.N,Net-(D5-GK)*%
X123500000Y-148250000D02*
X134000000Y-148250000D01*
X120000000Y-151750000D02*
X123500000Y-148250000D01*
X120500000Y-148250000D02*
X131000000Y-148250000D01*
X117000000Y-151750000D02*
X120500000Y-148250000D01*
X125000000Y-148250000D02*
X131000000Y-148250000D01*
X120000000Y-153250000D02*
X125000000Y-148250000D01*
X123500000Y-148250000D02*
X131000000Y-148250000D01*
%TO.N,Net-(BZ1-+)*%
X78337900Y-144135000D02*
X79975000Y-144135000D01*
X76486900Y-145986000D02*
X78337900Y-144135000D01*
X74017318Y-145986000D02*
X76486900Y-145986000D01*
X73769000Y-145737682D02*
X74017318Y-145986000D01*
X73769000Y-143802318D02*
X73769000Y-145737682D01*
X74017318Y-143554000D02*
X73769000Y-143802318D01*
X76032682Y-143554000D02*
X74017318Y-143554000D01*
X76281000Y-141876001D02*
X76281000Y-143305682D01*
X75999999Y-141595000D02*
X76281000Y-141876001D01*
X75025000Y-141595000D02*
X75999999Y-141595000D01*
X76281000Y-143305682D02*
X76032682Y-143554000D01*
%TO.N,Net-(A2-+5V)*%
X155475000Y-106075000D02*
X155475000Y-114500000D01*
X115140000Y-65740000D02*
X155475000Y-106075000D01*
%TO.N,Net-(A2-VIN)*%
X169031000Y-112011000D02*
X122760000Y-65740000D01*
X169031000Y-129581000D02*
X169031000Y-112011000D01*
X168362000Y-130250000D02*
X169031000Y-129581000D01*
X168000000Y-130250000D02*
X168362000Y-130250000D01*
%TO.N,Net-(A2-D1{slash}TX)*%
X152750000Y-128750000D02*
X138000000Y-114000000D01*
X168000000Y-128750000D02*
X152750000Y-128750000D01*
%TO.N,Net-(D5-GK)*%
X134201000Y-133011936D02*
X134201000Y-145049000D01*
X133913064Y-132724000D02*
X134201000Y-133011936D01*
X132626000Y-132724000D02*
X133913064Y-132724000D01*
X134201000Y-145049000D02*
X131000000Y-148250000D01*
X131850000Y-133500000D02*
X132626000Y-132724000D01*
%TO.N,Earth*%
X129000000Y-138500000D02*
X105000000Y-138500000D01*
X133500000Y-134000000D02*
X129000000Y-138500000D01*
X133500000Y-133500000D02*
X133500000Y-134000000D01*
%TO.N,Net-(A2-D4)*%
X65851000Y-111000000D02*
X127540000Y-111000000D01*
X64351000Y-112500000D02*
X65851000Y-111000000D01*
X127540000Y-111000000D02*
X130540000Y-114000000D01*
X64351000Y-112500000D02*
X64351000Y-156149000D01*
%TO.N,Net-(BZ1-+)*%
X79109000Y-160391000D02*
X101000000Y-138500000D01*
X62449000Y-160061206D02*
X62778794Y-160391000D01*
X62778794Y-160391000D02*
X79109000Y-160391000D01*
X62449000Y-159018794D02*
X62449000Y-160061206D01*
X63783900Y-158689000D02*
X62778794Y-158689000D01*
X62778794Y-158689000D02*
X62449000Y-159018794D01*
X78337900Y-144135000D02*
X63783900Y-158689000D01*
%TO.N,Net-(A2-D4)*%
X64351000Y-156149000D02*
X63500000Y-157000000D01*
X64351000Y-112051000D02*
X64351000Y-112500000D01*
X63300000Y-111000000D02*
X64351000Y-112051000D01*
%TO.N,Net-(A2-D13)*%
X75371968Y-145405000D02*
X75025000Y-145405000D01*
X106160000Y-114616968D02*
X75371968Y-145405000D01*
X106160000Y-114000000D02*
X106160000Y-114616968D01*
%TO.N,Net-(A2-D9)*%
X135051000Y-148949000D02*
X134250000Y-149750000D01*
X135051000Y-132731000D02*
X135051000Y-148949000D01*
X134250000Y-149750000D02*
X134000000Y-149750000D01*
X116320000Y-114000000D02*
X135051000Y-132731000D01*
%TO.N,Net-(A2-D4)*%
X147040000Y-130500000D02*
X147040000Y-146185000D01*
X130540000Y-114000000D02*
X147040000Y-130500000D01*
%TD*%
M02*
