M48
; DRILL file {KiCad 9.0.0} date 2025-04-20T12:55:25+0530
; FORMAT={-:-/ absolute / metric / decimal}
; #@! TF.CreationDate,2025-04-20T12:55:25+05:30
; #@! TF.GenerationSoftware,Kicad,Pcbnew,9.0.0
; #@! TF.FileFunction,Plated,1,2,PTH
FMAT,2
METRIC
; #@! TA.AperFunction,Plated,PTH,ComponentDrill
T1C0.900
; #@! TA.AperFunction,Plated,PTH,ComponentDrill
T2C1.000
%
G90
G05
T1
X101.0Y-138.5
X105.0Y-138.5
X141.96Y-146.185
X144.5Y-146.185
X147.04Y-146.185
T2
X100.92Y-114.0
X103.46Y-114.0
X104.98Y-65.74
X106.0Y-114.0
X107.52Y-65.74
X108.54Y-114.0
X110.06Y-65.74
X111.08Y-114.0
X112.6Y-65.74
X113.62Y-114.0
X115.14Y-65.74
X116.16Y-114.0
X117.68Y-65.74
X118.7Y-114.0
X120.22Y-65.74
X122.76Y-65.74
X122.76Y-114.0
X125.3Y-114.0
X127.84Y-65.74
X127.84Y-114.0
X130.38Y-65.74
X130.38Y-114.0
X132.92Y-65.74
X132.92Y-114.0
X135.46Y-65.74
X135.46Y-114.0
X138.0Y-65.74
X138.0Y-114.0
X140.54Y-65.74
X140.54Y-114.0
M30
